
<svg width="24" height="24" viewBox="0 0 24 24" fill="none" xmlns="http://www.w3.org/2000/svg">
<g clip-path="url(#clip0_379_3403)">
<path d="M23.4446 0.75L13.1465 8.36991L15.0615 3.87928L23.4446 0.75Z" fill="#E17726"/>
<path d="M0.580359 0.757812L8.94108 3.87866L10.7595 8.42816L0.580359 0.757812ZM19.2993 16.9543L23.851 17.0409L22.2602 22.4448L16.7062 20.9157L19.2993 16.9543ZM4.70048 16.9543L7.28395 20.9157L1.7393 22.4449L0.158203 17.0409L4.70048 16.9543Z" fill="#E27625"/>
<path d="M10.5128 7.27016L10.6988 13.2779L5.13281 13.0247L6.71606 10.6362L6.73613 10.6132L10.5128 7.27016ZM13.4306 7.20312L17.265 10.6134L17.2849 10.6363L18.8681 13.0248L13.3033 13.2779L13.4306 7.20312ZM7.44759 16.9725L10.4868 19.3406L6.95634 21.045L7.44759 16.9725ZM16.5541 16.9722L17.0351 21.0451L13.5145 19.3404L16.5541 16.9722Z" fill="#E27625"/>
<path d="M13.5918 19.1172L17.1644 20.8471L13.8412 22.4264L13.8757 21.3826L13.5918 19.1172ZM10.4074 19.1179L10.1347 21.3655L10.1571 22.4252L6.82617 20.8471L10.4074 19.1179Z" fill="#D5BFB2"/>
<path d="M9.3757 14.0625L10.3093 16.0245L7.13086 15.0934L9.3757 14.0625ZM14.6243 14.0627L16.8797 15.0934L13.6909 16.0242L14.6243 14.0627Z" fill="#233447"/>
<path d="M7.68934 16.9517L7.17559 21.1742L4.42188 17.044L7.68934 16.9517ZM16.3097 16.9518L19.5772 17.044L16.8132 21.1744L16.3097 16.9518ZM18.9474 12.7852L16.5694 15.2087L14.736 14.3708L13.8582 16.2162L13.2827 13.0429L18.9474 12.7852ZM5.05019 12.7852L10.716 13.0429L10.1404 16.2162L9.26247 14.3711L7.43875 15.2088L5.05019 12.7852Z" fill="#CC6228"/>
<path d="M4.89062 12.29L7.58106 15.0201L7.67425 17.7153L4.89062 12.29ZM19.1122 12.2852L16.3235 17.7201L16.4285 15.0201L19.1122 12.2852ZM10.5851 12.4563L10.6934 13.1379L10.9609 14.8358L10.7889 20.0507L9.97563 15.8614L9.97534 15.8181L10.5851 12.4563ZM13.4136 12.4469L14.025 15.8181L14.0247 15.8614L13.2093 20.0612L13.1771 19.0107L13.0499 14.8049L13.4136 12.4469Z" fill="#E27525"/>
<path d="M16.6672 14.9102L16.5762 17.2518L13.738 19.4631L13.1642 19.0577L13.8074 15.7451L16.6672 14.9102ZM7.3418 14.9102L10.1917 15.7451L10.8348 19.0577L10.2611 19.4631L7.4228 17.2517L7.3418 14.9102Z" fill="#F5841F"/>
<path d="M6.2832 20.332L9.91433 22.0525L9.89895 21.3178L10.2028 21.0511H13.7966L14.1114 21.3169L14.0882 22.051L17.6963 20.3363L15.9406 21.7872L13.8176 23.2453H10.1736L8.05208 21.7812L6.2832 20.332Z" fill="#C0AC9D"/>
<path d="M13.3312 18.8867L13.8446 19.2494L14.1454 21.6498L13.71 21.2822H10.2904L9.86328 21.6572L10.1543 19.2496L10.6678 18.8867H13.3312Z" fill="#161616"/>
<path d="M22.7638 0.960938L24 4.66941L23.228 8.41913L23.7777 8.84316L23.0338 9.41072L23.5929 9.84253L22.8526 10.5167L23.3071 10.8458L22.1009 12.2545L17.1537 10.8141L17.1109 10.7911L13.5458 7.78378L22.7638 0.960938ZM1.23619 0.960938L10.4543 7.78378L6.88912 10.7911L6.84628 10.8141L1.89909 12.2545L0.692906 10.8458L1.14703 10.517L0.407156 9.84253L0.965156 9.41119L0.210094 8.84203L0.780563 8.41772L0 4.66959L1.23619 0.960938Z" fill="#763E1A"/>
<path d="M16.9112 10.5003L22.153 12.0264L23.856 17.2751H19.3631L16.2675 17.3141L18.5188 12.9259L16.9112 10.5003ZM7.08769 10.5003L5.47978 12.9259L7.73138 17.3141L4.63716 17.2751H0.152344L1.84575 12.0265L7.08769 10.5003ZM15.3167 3.85547L13.8505 7.81537L13.5394 13.1647L13.4203 14.8415L13.4108 19.1247H10.5879L10.5788 14.8495L10.4593 13.1633L10.1481 7.81537L8.68209 3.85547H15.3167Z" fill="#F5841F"/>
</g>
<defs>
<clipPath id="clip0_379_3403">
<rect width="24" height="22.5" fill="white" transform="translate(0 0.75)"/>
</clipPath>
</defs>
</svg>
