
<svg width="24" height="24" viewBox="0 0 24 24" fill="none" xmlns="http://www.w3.org/2000/svg">
<g clip-path="url(#clip0_379_3451)">
<path d="M16.624 13.9217L19.341 16.6377L11.988 23.9907L4.636 16.6387L7.353 13.9217L11.989 18.5817L16.624 13.9217ZM21.261 9.28572L24 12.0017L21.285 14.7177L18.568 12.0017L21.261 9.28572ZM11.989 9.28572L14.705 11.9777L11.988 14.6947L9.272 12.0017L11.988 9.28672L11.989 9.28572ZM2.716 9.28572L5.41 12.0017L2.718 14.6937L0 12.0017L2.716 9.28572ZM11.99 0.0117188L19.342 7.34172L16.625 10.0567L11.989 5.42072L7.354 10.0807L4.637 7.36472L11.989 0.0127188L11.99 0.0117188Z" fill="#FFD700"/>
</g>
<defs>
<clipPath id="clip0_379_3451">
<rect width="24" height="24" fill="white"/>
</clipPath>
</defs>
</svg>
