
<svg width="24" height="24" viewBox="0 0 24 24" fill="none" xmlns="http://www.w3.org/2000/svg">
<g clip-path="url(#clip0_379_3456)">
<path d="M24 12C24 13.272 23.904 14.544 23.688 15.768C23.04 19.824 19.824 23.04 15.768 23.688C14.544 23.904 13.272 24 12 24C10.728 24 9.456 23.904 8.232 23.688C4.176 23.04 0.96 19.824 0.312 15.768C0.096 14.544 0 13.272 0 12C0 10.728 0.096 9.456 0.312 8.232C0.96 4.176 4.176 0.96 8.232 0.312C9.456 0.096 10.728 0 12 0C13.272 0 14.544 0.096 15.768 0.312C19.824 0.96 23.04 4.176 23.688 8.232C23.904 9.456 24 10.728 24 12Z" fill="url(#paint0_linear_379_3456)"/>
<path d="M19.1271 19.4883H7.03109C6.23909 19.4883 5.47109 19.0563 5.11109 18.3603C4.67909 17.5443 4.84709 16.5603 5.49509 15.9123L13.9191 7.48828H7.87109C6.21509 7.48828 4.87109 6.14428 4.87109 4.48828H16.0071C16.7991 4.48828 17.5671 4.92028 17.9271 5.61628C18.3591 6.43228 18.1911 7.41628 17.5431 8.06428L9.14309 16.5123H16.1271C17.7831 16.5123 19.1271 17.8323 19.1271 19.4883Z" fill="white"/>
</g>
<defs>
<linearGradient id="paint0_linear_379_3456" x1="567.984" y1="2294.69" x2="1832.02" y2="105.312" gradientUnits="userSpaceOnUse">
<stop stop-color="#0845BF"/>
<stop offset="0.1911" stop-color="#0950DE"/>
<stop offset="0.3823" stop-color="#0B59F6"/>
<stop offset="0.5" stop-color="#0B5CFF"/>
<stop offset="0.6732" stop-color="#0E5EFE"/>
<stop offset="0.7774" stop-color="#1665FC"/>
<stop offset="0.8633" stop-color="#246FF9"/>
<stop offset="0.9388" stop-color="#387FF4"/>
<stop offset="1" stop-color="#4F90EE"/>
</linearGradient>
<clipPath id="clip0_379_3456">
<rect width="24" height="24" fill="white"/>
</clipPath>
</defs>
</svg>
