<svg width="567" height="102" viewBox="0 0 567 102" fill="none" xmlns="http://www.w3.org/2000/svg">
<rect width="567" height="102" rx="51" fill="#626262" fill-opacity="0.17"/>
<rect x="8" y="8" width="551" height="86" rx="43" fill="#141414"/>
<path d="M46.4631 55.2415C45.3409 55.2367 44.3821 54.9408 43.5866 54.3537C42.7912 53.7666 42.1828 52.9119 41.7614 51.7898C41.34 50.6676 41.1293 49.3158 41.1293 47.7344C41.1293 46.1577 41.34 44.8106 41.7614 43.6932C42.1875 42.5758 42.7983 41.7235 43.5938 41.1364C44.3939 40.5492 45.3504 40.2557 46.4631 40.2557C47.5758 40.2557 48.5298 40.5516 49.3253 41.1435C50.1207 41.7306 50.7292 42.5829 51.1506 43.7003C51.5767 44.813 51.7898 46.1577 51.7898 47.7344C51.7898 49.3205 51.5791 50.6747 51.1577 51.7969C50.7363 52.9143 50.1278 53.7689 49.3324 54.3608C48.5369 54.9479 47.5805 55.2415 46.4631 55.2415ZM46.4631 53.3452C47.4479 53.3452 48.2173 52.8646 48.7713 51.9034C49.33 50.9422 49.6094 49.5526 49.6094 47.7344C49.6094 46.527 49.4815 45.5066 49.2259 44.6733C48.9749 43.8352 48.6127 43.2008 48.1392 42.7699C47.6705 42.3343 47.1117 42.1165 46.4631 42.1165C45.483 42.1165 44.7135 42.5994 44.1548 43.5653C43.5961 44.5312 43.3144 45.9209 43.3097 47.7344C43.3097 48.9465 43.4351 49.9716 43.6861 50.8097C43.9418 51.643 44.304 52.2751 44.7727 52.706C45.2415 53.1321 45.8049 53.3452 46.4631 53.3452ZM59.3732 55.2415C58.2511 55.2367 57.2923 54.9408 56.4968 54.3537C55.7013 53.7666 55.0929 52.9119 54.6715 51.7898C54.2501 50.6676 54.0394 49.3158 54.0394 47.7344C54.0394 46.1577 54.2501 44.8106 54.6715 43.6932C55.0977 42.5758 55.7085 41.7235 56.5039 41.1364C57.3041 40.5492 58.2605 40.2557 59.3732 40.2557C60.4859 40.2557 61.44 40.5516 62.2354 41.1435C63.0309 41.7306 63.6393 42.5829 64.0607 43.7003C64.4869 44.813 64.6999 46.1577 64.6999 47.7344C64.6999 49.3205 64.4892 50.6747 64.0678 51.7969C63.6464 52.9143 63.038 53.7689 62.2425 54.3608C61.4471 54.9479 60.4906 55.2415 59.3732 55.2415ZM59.3732 53.3452C60.3581 53.3452 61.1275 52.8646 61.6815 51.9034C62.2402 50.9422 62.5195 49.5526 62.5195 47.7344C62.5195 46.527 62.3917 45.5066 62.136 44.6733C61.8851 43.8352 61.5228 43.2008 61.0494 42.7699C60.5806 42.3343 60.0219 42.1165 59.3732 42.1165C58.3931 42.1165 57.6237 42.5994 57.065 43.5653C56.5063 44.5312 56.2246 45.9209 56.2198 47.7344C56.2198 48.9465 56.3453 49.9716 56.5962 50.8097C56.8519 51.643 57.2141 52.2751 57.6829 52.706C58.1516 53.1321 58.7151 53.3452 59.3732 53.3452ZM68.647 53.196C68.2588 53.196 67.925 53.0587 67.6456 52.7841C67.3662 52.5047 67.2266 52.1686 67.2266 51.7756C67.2266 51.3873 67.3662 51.0559 67.6456 50.7812C67.925 50.5019 68.2588 50.3622 68.647 50.3622C69.0353 50.3622 69.3691 50.5019 69.6484 50.7812C69.9278 51.0559 70.0675 51.3873 70.0675 51.7756C70.0675 52.036 70.0012 52.2751 69.8686 52.4929C69.7408 52.706 69.5703 52.8764 69.3572 53.0043C69.1442 53.1321 68.9074 53.196 68.647 53.196ZM68.647 45.9091C68.2588 45.9091 67.925 45.7718 67.6456 45.4972C67.3662 45.2178 67.2266 44.8816 67.2266 44.4886C67.2266 44.1004 67.3662 43.7689 67.6456 43.4943C67.925 43.215 68.2588 43.0753 68.647 43.0753C69.0353 43.0753 69.3691 43.215 69.6484 43.4943C69.9278 43.7689 70.0675 44.1004 70.0675 44.4886C70.0675 44.7491 70.0012 44.9882 69.8686 45.206C69.7408 45.419 69.5703 45.5895 69.3572 45.7173C69.1442 45.8452 68.9074 45.9091 68.647 45.9091ZM77.9474 55.2415C76.8253 55.2367 75.8665 54.9408 75.071 54.3537C74.2756 53.7666 73.6671 52.9119 73.2457 51.7898C72.8243 50.6676 72.6136 49.3158 72.6136 47.7344C72.6136 46.1577 72.8243 44.8106 73.2457 43.6932C73.6719 42.5758 74.2827 41.7235 75.0781 41.1364C75.8783 40.5492 76.8348 40.2557 77.9474 40.2557C79.0601 40.2557 80.0142 40.5516 80.8097 41.1435C81.6051 41.7306 82.2135 42.5829 82.6349 43.7003C83.0611 44.813 83.2741 46.1577 83.2741 47.7344C83.2741 49.3205 83.0634 50.6747 82.642 51.7969C82.2206 52.9143 81.6122 53.7689 80.8168 54.3608C80.0213 54.9479 79.0649 55.2415 77.9474 55.2415ZM77.9474 53.3452C78.9323 53.3452 79.7017 52.8646 80.2557 51.9034C80.8144 50.9422 81.0938 49.5526 81.0938 47.7344C81.0938 46.527 80.9659 45.5066 80.7102 44.6733C80.4593 43.8352 80.0971 43.2008 79.6236 42.7699C79.1548 42.3343 78.5961 42.1165 77.9474 42.1165C76.9673 42.1165 76.1979 42.5994 75.6392 43.5653C75.0805 44.5312 74.7988 45.9209 74.794 47.7344C74.794 48.9465 74.9195 49.9716 75.1705 50.8097C75.4261 51.643 75.7884 52.2751 76.2571 52.706C76.7259 53.1321 77.2893 53.3452 77.9474 53.3452ZM90.8576 55.1989C89.8822 55.1989 89.011 55.0308 88.244 54.6946C87.4817 54.3584 86.878 53.892 86.4329 53.2955C85.9925 52.6941 85.7558 51.9981 85.7227 51.2074H87.9528C87.9812 51.6383 88.1256 52.0123 88.386 52.3295C88.6512 52.642 88.9968 52.8835 89.4229 53.054C89.8491 53.2244 90.3226 53.3097 90.8434 53.3097C91.4163 53.3097 91.9229 53.2102 92.3633 53.0114C92.8084 52.8125 93.1564 52.5355 93.4073 52.1804C93.6583 51.8205 93.7837 51.4062 93.7837 50.9375C93.7837 50.4498 93.6583 50.0213 93.4073 49.652C93.1611 49.2779 92.7989 48.9844 92.3207 48.7713C91.8472 48.5582 91.2743 48.4517 90.6019 48.4517H89.3732V46.6619H90.6019C91.1417 46.6619 91.6152 46.5649 92.0224 46.3707C92.4343 46.1766 92.7563 45.9067 92.9883 45.5611C93.2203 45.2107 93.3363 44.8011 93.3363 44.3324C93.3363 43.8826 93.2345 43.492 93.0309 43.1605C92.832 42.8243 92.5479 42.5616 92.1786 42.3722C91.814 42.1828 91.3832 42.0881 90.886 42.0881C90.4125 42.0881 89.9698 42.1757 89.5579 42.3509C89.1507 42.5213 88.8192 42.7675 88.5636 43.0895C88.3079 43.4067 88.1706 43.7879 88.1516 44.233H86.0281C86.0517 43.447 86.2837 42.7557 86.7241 42.1591C87.1692 41.5625 87.7563 41.0961 88.4854 40.7599C89.2146 40.4238 90.0243 40.2557 90.9144 40.2557C91.8472 40.2557 92.6521 40.438 93.3292 40.8026C94.011 41.1624 94.5366 41.643 94.9059 42.2443C95.2799 42.8456 95.4646 43.5038 95.4599 44.2188C95.4646 45.0331 95.2373 45.7244 94.7781 46.2926C94.3235 46.8608 93.7174 47.242 92.9599 47.4361V47.5497C93.9258 47.6965 94.6739 48.08 95.2042 48.7003C95.7392 49.3205 96.0044 50.09 95.9996 51.0085C96.0044 51.8087 95.7818 52.526 95.332 53.1605C94.887 53.795 94.2785 54.2945 93.5067 54.6591C92.735 55.0189 91.8519 55.1989 90.8576 55.1989ZM100.112 53.196C99.7236 53.196 99.3898 53.0587 99.1104 52.7841C98.8311 52.5047 98.6914 52.1686 98.6914 51.7756C98.6914 51.3873 98.8311 51.0559 99.1104 50.7812C99.3898 50.5019 99.7236 50.3622 100.112 50.3622C100.5 50.3622 100.834 50.5019 101.113 50.7812C101.393 51.0559 101.532 51.3873 101.532 51.7756C101.532 52.036 101.466 52.2751 101.333 52.4929C101.206 52.706 101.035 52.8764 100.822 53.0043C100.609 53.1321 100.372 53.196 100.112 53.196ZM100.112 45.9091C99.7236 45.9091 99.3898 45.7718 99.1104 45.4972C98.8311 45.2178 98.6914 44.8816 98.6914 44.4886C98.6914 44.1004 98.8311 43.7689 99.1104 43.4943C99.3898 43.215 99.7236 43.0753 100.112 43.0753C100.5 43.0753 100.834 43.215 101.113 43.4943C101.393 43.7689 101.532 44.1004 101.532 44.4886C101.532 44.7491 101.466 44.9882 101.333 45.206C101.206 45.419 101.035 45.5895 100.822 45.7173C100.609 45.8452 100.372 45.9091 100.112 45.9091ZM104.043 52.1591V50.3835L110.328 40.4545H111.728V43.0682H110.84L106.344 50.1847V50.2983H114.959V52.1591H104.043ZM110.939 55V51.6193L110.953 50.8097V40.4545H113.034V55H110.939ZM122.235 55.1989C121.345 55.1989 120.545 55.0284 119.835 54.6875C119.129 54.3419 118.566 53.8684 118.145 53.267C117.723 52.6657 117.498 51.9792 117.47 51.2074H119.6C119.653 51.8324 119.93 52.3461 120.431 52.7486C120.933 53.151 121.535 53.3523 122.235 53.3523C122.794 53.3523 123.289 53.2244 123.72 52.9688C124.155 52.7083 124.496 52.3509 124.743 51.8963C124.993 51.4418 125.119 50.9233 125.119 50.3409C125.119 49.7491 124.991 49.2211 124.735 48.7571C124.48 48.2931 124.127 47.9285 123.677 47.6634C123.232 47.3982 122.721 47.2633 122.143 47.2585C121.703 47.2585 121.26 47.3343 120.815 47.4858C120.37 47.6373 120.01 47.8362 119.735 48.0824L117.725 47.7841L118.542 40.4545H126.539V42.3366H120.368L119.906 46.4062H119.991C120.275 46.1316 120.652 45.902 121.12 45.7173C121.594 45.5327 122.1 45.4403 122.64 45.4403C123.526 45.4403 124.314 45.651 125.005 46.0724C125.701 46.4938 126.248 47.0691 126.646 47.7983C127.048 48.5227 127.247 49.3561 127.243 50.2983C127.247 51.2405 127.034 52.081 126.603 52.8196C126.177 53.5582 125.585 54.1406 124.828 54.5668C124.075 54.9882 123.211 55.1989 122.235 55.1989Z" fill="white"/>
<rect x="137" y="38" width="20" height="20" rx="10" fill="#C00404" fill-opacity="0.19"/>
<rect x="142" y="43" width="10" height="10" rx="5" fill="#C00404"/>
<line x1="177.5" y1="24" x2="177.5" y2="72" stroke="#E8E8E8"/>
<rect x="201.5" y="20.5" width="43" height="43" rx="21.5" fill="white"/>
<path d="M219 36.5L219 47.5" stroke="black" stroke-width="2" stroke-linecap="round"/>
<path d="M227 36.5L227 47.5" stroke="black" stroke-width="2" stroke-linecap="round"/>
<rect x="201.5" y="20.5" width="43" height="43" rx="21.5" stroke="white"/>
<path d="M209.224 71.08C209.792 71.08 210.28 71.18 210.688 71.38C211.104 71.58 211.428 71.864 211.66 72.232C211.892 72.6 212.008 73.044 212.008 73.564C212.008 74.076 211.892 74.52 211.66 74.896C211.428 75.264 211.104 75.548 210.688 75.748C210.28 75.948 209.792 76.048 209.224 76.048H207.46V79H206.176V71.08H209.224ZM209.02 74.944C209.588 74.944 210.004 74.828 210.268 74.596C210.54 74.356 210.676 74.012 210.676 73.564C210.676 73.108 210.54 72.764 210.268 72.532C210.004 72.292 209.588 72.172 209.02 72.172H207.46V74.944H209.02ZM216.987 75.148C216.987 74.748 216.875 74.44 216.651 74.224C216.435 74 216.135 73.888 215.751 73.888C215.391 73.888 215.083 73.972 214.827 74.14C214.571 74.308 214.383 74.58 214.263 74.956L213.183 74.5C213.335 74.012 213.631 73.62 214.071 73.324C214.519 73.028 215.095 72.88 215.799 72.88C216.279 72.88 216.703 72.96 217.071 73.12C217.439 73.272 217.727 73.504 217.935 73.816C218.151 74.128 218.259 74.528 218.259 75.016V77.692C218.259 77.988 218.407 78.136 218.703 78.136C218.847 78.136 218.987 78.116 219.123 78.076L219.051 78.964C218.867 79.052 218.635 79.096 218.355 79.096C218.099 79.096 217.867 79.052 217.659 78.964C217.459 78.868 217.299 78.728 217.179 78.544C217.067 78.352 217.011 78.116 217.011 77.836V77.752L217.275 77.74C217.203 78.052 217.055 78.312 216.831 78.52C216.607 78.72 216.347 78.872 216.051 78.976C215.755 79.072 215.455 79.12 215.151 79.12C214.775 79.12 214.435 79.06 214.131 78.94C213.835 78.82 213.599 78.64 213.423 78.4C213.255 78.152 213.171 77.848 213.171 77.488C213.171 77.04 213.315 76.672 213.603 76.384C213.899 76.096 214.315 75.9 214.851 75.796L217.179 75.34L217.167 76.24L215.475 76.588C215.139 76.652 214.887 76.744 214.719 76.864C214.551 76.984 214.467 77.16 214.467 77.392C214.467 77.616 214.551 77.796 214.719 77.932C214.895 78.06 215.127 78.124 215.415 78.124C215.615 78.124 215.807 78.1 215.991 78.052C216.183 78.004 216.355 77.928 216.507 77.824C216.659 77.712 216.775 77.572 216.855 77.404C216.943 77.228 216.987 77.02 216.987 76.78V75.148ZM222.499 79.12C222.107 79.12 221.743 79.048 221.407 78.904C221.079 78.76 220.815 78.528 220.615 78.208C220.415 77.888 220.315 77.472 220.315 76.96V73H221.599V76.636C221.599 77.18 221.715 77.556 221.947 77.764C222.179 77.964 222.503 78.064 222.919 78.064C223.119 78.064 223.311 78.032 223.495 77.968C223.687 77.896 223.859 77.788 224.011 77.644C224.163 77.492 224.279 77.3 224.359 77.068C224.447 76.836 224.491 76.564 224.491 76.252V73H225.775V79H224.647L224.587 78.028C224.379 78.404 224.099 78.68 223.747 78.856C223.395 79.032 222.979 79.12 222.499 79.12ZM230.061 79.12C229.461 79.12 228.913 79.004 228.417 78.772C227.921 78.54 227.529 78.212 227.241 77.788L228.129 77.02C228.305 77.348 228.557 77.612 228.885 77.812C229.221 78.004 229.621 78.1 230.085 78.1C230.453 78.1 230.745 78.036 230.961 77.908C231.177 77.78 231.285 77.6 231.285 77.368C231.285 77.216 231.233 77.084 231.129 76.972C231.033 76.852 230.845 76.76 230.565 76.696L229.305 76.432C228.665 76.304 228.209 76.1 227.937 75.82C227.665 75.532 227.529 75.168 227.529 74.728C227.529 74.4 227.625 74.096 227.817 73.816C228.009 73.536 228.289 73.312 228.657 73.144C229.033 72.968 229.481 72.88 230.001 72.88C230.601 72.88 231.113 72.988 231.537 73.204C231.961 73.412 232.285 73.712 232.509 74.104L231.621 74.848C231.469 74.528 231.245 74.292 230.949 74.14C230.653 73.98 230.345 73.9 230.025 73.9C229.769 73.9 229.549 73.932 229.365 73.996C229.181 74.06 229.041 74.148 228.945 74.26C228.849 74.372 228.801 74.504 228.801 74.656C228.801 74.816 228.861 74.956 228.981 75.076C229.101 75.196 229.317 75.288 229.629 75.352L230.997 75.64C231.573 75.752 231.977 75.944 232.209 76.216C232.449 76.48 232.569 76.804 232.569 77.188C232.569 77.572 232.469 77.912 232.269 78.208C232.069 78.496 231.781 78.72 231.405 78.88C231.029 79.04 230.581 79.12 230.061 79.12ZM236.761 79.12C236.161 79.12 235.633 78.996 235.177 78.748C234.721 78.5 234.365 78.144 234.109 77.68C233.861 77.208 233.737 76.648 233.737 76C233.737 75.352 233.861 74.796 234.109 74.332C234.365 73.86 234.717 73.5 235.165 73.252C235.613 73.004 236.121 72.88 236.689 72.88C237.273 72.88 237.769 73 238.177 73.24C238.585 73.48 238.897 73.808 239.113 74.224C239.329 74.64 239.437 75.112 239.437 75.64C239.437 75.784 239.433 75.92 239.425 76.048C239.417 76.176 239.405 76.288 239.389 76.384H234.565V75.4H238.825L238.189 75.592C238.189 75.048 238.053 74.632 237.781 74.344C237.509 74.048 237.137 73.9 236.665 73.9C236.321 73.9 236.021 73.98 235.765 74.14C235.509 74.3 235.313 74.54 235.177 74.86C235.041 75.172 234.973 75.556 234.973 76.012C234.973 76.46 235.045 76.84 235.189 77.152C235.333 77.464 235.537 77.7 235.801 77.86C236.065 78.02 236.377 78.1 236.737 78.1C237.137 78.1 237.461 78.024 237.709 77.872C237.957 77.72 238.153 77.508 238.297 77.236L239.317 77.716C239.173 78.004 238.977 78.256 238.729 78.472C238.489 78.68 238.201 78.84 237.865 78.952C237.529 79.064 237.161 79.12 236.761 79.12Z" fill="white"/>
<rect x="269.5" y="20.5" width="43" height="43" rx="21.5" fill="white"/>
<path d="M284.25 37.5C284.25 36.2574 285.257 35.25 286.5 35.25H295.5C296.743 35.25 297.75 36.2574 297.75 37.5V46.5C297.75 47.7426 296.743 48.75 295.5 48.75H286.5C285.257 48.75 284.25 47.7426 284.25 46.5V37.5Z" stroke="#0F172A" stroke-width="1.5" stroke-linecap="round" stroke-linejoin="round"/>
<rect x="269.5" y="20.5" width="43" height="43" rx="21.5" stroke="black"/>
<path d="M280.876 70.96C281.588 70.96 282.204 71.096 282.724 71.368C283.244 71.632 283.684 72.024 284.044 72.544L283.18 73.372C282.876 72.908 282.532 72.576 282.148 72.376C281.772 72.168 281.324 72.064 280.804 72.064C280.42 72.064 280.104 72.116 279.856 72.22C279.608 72.324 279.424 72.464 279.304 72.64C279.192 72.808 279.136 73 279.136 73.216C279.136 73.464 279.22 73.68 279.388 73.864C279.564 74.048 279.888 74.192 280.36 74.296L281.968 74.656C282.736 74.824 283.28 75.08 283.6 75.424C283.92 75.768 284.08 76.204 284.08 76.732C284.08 77.22 283.948 77.644 283.684 78.004C283.42 78.364 283.052 78.64 282.58 78.832C282.116 79.024 281.568 79.12 280.936 79.12C280.376 79.12 279.872 79.048 279.424 78.904C278.976 78.76 278.584 78.564 278.248 78.316C277.912 78.068 277.636 77.784 277.42 77.464L278.308 76.576C278.476 76.856 278.688 77.108 278.944 77.332C279.2 77.548 279.496 77.716 279.832 77.836C280.176 77.956 280.556 78.016 280.972 78.016C281.34 78.016 281.656 77.972 281.92 77.884C282.192 77.796 282.396 77.668 282.532 77.5C282.676 77.324 282.748 77.116 282.748 76.876C282.748 76.644 282.668 76.44 282.508 76.264C282.356 76.088 282.068 75.952 281.644 75.856L279.904 75.46C279.424 75.356 279.028 75.208 278.716 75.016C278.404 74.824 278.172 74.592 278.02 74.32C277.868 74.04 277.792 73.728 277.792 73.384C277.792 72.936 277.912 72.532 278.152 72.172C278.4 71.804 278.756 71.512 279.22 71.296C279.684 71.072 280.236 70.96 280.876 70.96ZM287.447 71.236V77.2C287.447 77.496 287.523 77.712 287.675 77.848C287.835 77.984 288.047 78.052 288.311 78.052C288.527 78.052 288.715 78.02 288.875 77.956C289.035 77.884 289.183 77.788 289.319 77.668L289.607 78.604C289.423 78.764 289.195 78.892 288.923 78.988C288.659 79.076 288.363 79.12 288.035 79.12C287.691 79.12 287.375 79.064 287.087 78.952C286.799 78.84 286.575 78.66 286.415 78.412C286.255 78.156 286.171 77.824 286.163 77.416V71.596L287.447 71.236ZM289.511 73V74.008H285.011V73H289.511ZM293.385 72.88C293.969 72.88 294.485 73.004 294.933 73.252C295.381 73.5 295.729 73.86 295.977 74.332C296.233 74.796 296.361 75.352 296.361 76C296.361 76.648 296.233 77.208 295.977 77.68C295.729 78.144 295.381 78.5 294.933 78.748C294.485 78.996 293.969 79.12 293.385 79.12C292.801 79.12 292.285 78.996 291.837 78.748C291.389 78.5 291.037 78.144 290.781 77.68C290.525 77.208 290.397 76.648 290.397 76C290.397 75.352 290.525 74.796 290.781 74.332C291.037 73.86 291.389 73.5 291.837 73.252C292.285 73.004 292.801 72.88 293.385 72.88ZM293.385 73.888C293.025 73.888 292.717 73.972 292.461 74.14C292.213 74.3 292.021 74.536 291.885 74.848C291.749 75.16 291.681 75.544 291.681 76C291.681 76.448 291.749 76.832 291.885 77.152C292.021 77.464 292.213 77.704 292.461 77.872C292.717 78.032 293.025 78.112 293.385 78.112C293.745 78.112 294.049 78.032 294.297 77.872C294.545 77.704 294.737 77.464 294.873 77.152C295.009 76.832 295.077 76.448 295.077 76C295.077 75.544 295.009 75.16 294.873 74.848C294.737 74.536 294.545 74.3 294.297 74.14C294.049 73.972 293.745 73.888 293.385 73.888ZM297.976 81.52V73H299.116L299.212 74.68L299.044 74.476C299.14 74.164 299.288 73.888 299.488 73.648C299.688 73.408 299.936 73.22 300.232 73.084C300.536 72.948 300.868 72.88 301.228 72.88C301.716 72.88 302.16 73.004 302.56 73.252C302.96 73.5 303.276 73.856 303.508 74.32C303.74 74.776 303.856 75.332 303.856 75.988C303.856 76.644 303.736 77.208 303.496 77.68C303.264 78.144 302.944 78.5 302.536 78.748C302.136 78.996 301.688 79.12 301.192 79.12C300.68 79.12 300.244 78.988 299.884 78.724C299.524 78.452 299.268 78.108 299.116 77.692L299.26 77.488V81.52H297.976ZM300.916 78.076C301.436 78.076 301.84 77.892 302.128 77.524C302.424 77.156 302.572 76.648 302.572 76C302.572 75.352 302.428 74.844 302.14 74.476C301.852 74.1 301.452 73.912 300.94 73.912C300.604 73.912 300.308 74 300.052 74.176C299.804 74.344 299.608 74.584 299.464 74.896C299.328 75.2 299.26 75.568 299.26 76C299.26 76.424 299.328 76.792 299.464 77.104C299.6 77.416 299.792 77.656 300.04 77.824C300.288 77.992 300.58 78.076 300.916 78.076Z" fill="white"/>
<rect x="338.5" y="20.5" width="43" height="43" rx="21.5" fill="white"/>
<path d="M363.75 40.5L368.47 35.7803C368.942 35.3079 369.75 35.6425 369.75 36.3107V47.6893C369.75 48.3575 368.942 48.6921 368.47 48.2197L363.75 43.5M352.5 48.75H361.5C362.743 48.75 363.75 47.7426 363.75 46.5V37.5C363.75 36.2574 362.743 35.25 361.5 35.25H352.5C351.257 35.25 350.25 36.2574 350.25 37.5V46.5C350.25 47.7426 351.257 48.75 352.5 48.75Z" stroke="#0F172A" stroke-width="1.5" stroke-linecap="round" stroke-linejoin="round"/>
<g filter="url(#filter0_d_597_1339)">
<rect x="370" y="54" width="12" height="12" rx="2" fill="white"/>
<path d="M378.64 61.0167L376.467 58.8434C376.21 58.5867 375.79 58.5867 375.533 58.8434L373.36 61.0167" stroke="black" stroke-miterlimit="10" stroke-linecap="round" stroke-linejoin="round"/>
</g>
<rect x="338.5" y="20.5" width="43" height="43" rx="21.5" stroke="black"/>
<path d="M344.74 76.9C344.58 77.38 344.34 77.788 344.02 78.124C343.7 78.452 343.324 78.7 342.892 78.868C342.46 79.036 341.984 79.12 341.464 79.12C340.704 79.12 340.044 78.956 339.484 78.628C338.924 78.3 338.492 77.832 338.188 77.224C337.884 76.616 337.732 75.888 337.732 75.04C337.732 74.192 337.884 73.464 338.188 72.856C338.492 72.248 338.924 71.78 339.484 71.452C340.044 71.124 340.7 70.96 341.452 70.96C341.972 70.96 342.44 71.032 342.856 71.176C343.28 71.32 343.64 71.536 343.936 71.824C344.232 72.112 344.46 72.472 344.62 72.904L343.408 73.444C343.248 72.972 343.016 72.628 342.712 72.412C342.408 72.188 342.012 72.076 341.524 72.076C341.036 72.076 340.608 72.192 340.24 72.424C339.872 72.656 339.584 72.992 339.376 73.432C339.176 73.872 339.076 74.408 339.076 75.04C339.076 75.664 339.172 76.2 339.364 76.648C339.556 77.088 339.832 77.424 340.192 77.656C340.552 77.888 340.984 78.004 341.488 78.004C341.976 78.004 342.396 77.88 342.748 77.632C343.108 77.376 343.364 76.996 343.516 76.492L344.74 76.9ZM349.667 75.148C349.667 74.748 349.555 74.44 349.331 74.224C349.115 74 348.815 73.888 348.431 73.888C348.071 73.888 347.763 73.972 347.507 74.14C347.251 74.308 347.063 74.58 346.943 74.956L345.863 74.5C346.015 74.012 346.311 73.62 346.751 73.324C347.199 73.028 347.775 72.88 348.479 72.88C348.959 72.88 349.383 72.96 349.751 73.12C350.119 73.272 350.407 73.504 350.615 73.816C350.831 74.128 350.939 74.528 350.939 75.016V77.692C350.939 77.988 351.087 78.136 351.383 78.136C351.527 78.136 351.667 78.116 351.803 78.076L351.731 78.964C351.547 79.052 351.315 79.096 351.035 79.096C350.779 79.096 350.547 79.052 350.339 78.964C350.139 78.868 349.979 78.728 349.859 78.544C349.747 78.352 349.691 78.116 349.691 77.836V77.752L349.955 77.74C349.883 78.052 349.735 78.312 349.511 78.52C349.287 78.72 349.027 78.872 348.731 78.976C348.435 79.072 348.135 79.12 347.831 79.12C347.455 79.12 347.115 79.06 346.811 78.94C346.515 78.82 346.279 78.64 346.103 78.4C345.935 78.152 345.851 77.848 345.851 77.488C345.851 77.04 345.995 76.672 346.283 76.384C346.579 76.096 346.995 75.9 347.531 75.796L349.859 75.34L349.847 76.24L348.155 76.588C347.819 76.652 347.567 76.744 347.399 76.864C347.231 76.984 347.147 77.16 347.147 77.392C347.147 77.616 347.231 77.796 347.399 77.932C347.575 78.06 347.807 78.124 348.095 78.124C348.295 78.124 348.487 78.1 348.671 78.052C348.863 78.004 349.035 77.928 349.187 77.824C349.339 77.712 349.455 77.572 349.535 77.404C349.623 77.228 349.667 77.02 349.667 76.78V75.148ZM353.043 79V73H354.183L354.243 74.008C354.451 73.624 354.727 73.34 355.071 73.156C355.423 72.972 355.795 72.88 356.187 72.88C356.619 72.88 357.015 72.98 357.375 73.18C357.743 73.372 358.019 73.664 358.203 74.056C358.331 73.792 358.507 73.572 358.731 73.396C358.955 73.22 359.203 73.092 359.475 73.012C359.747 72.924 360.015 72.88 360.279 72.88C360.663 72.88 361.023 72.96 361.359 73.12C361.695 73.28 361.967 73.524 362.175 73.852C362.383 74.18 362.487 74.6 362.487 75.112V79H361.203V75.316C361.203 74.828 361.087 74.476 360.855 74.26C360.623 74.044 360.327 73.936 359.967 73.936C359.687 73.936 359.427 74.004 359.187 74.14C358.955 74.276 358.767 74.48 358.623 74.752C358.479 75.016 358.407 75.344 358.407 75.736V79H357.123V75.316C357.123 74.828 357.007 74.476 356.775 74.26C356.543 74.044 356.247 73.936 355.887 73.936C355.647 73.936 355.407 74 355.167 74.128C354.927 74.256 354.727 74.456 354.567 74.728C354.407 75 354.327 75.36 354.327 75.808V79H353.043ZM367.074 79.12C366.474 79.12 365.946 78.996 365.49 78.748C365.034 78.5 364.678 78.144 364.422 77.68C364.174 77.208 364.05 76.648 364.05 76C364.05 75.352 364.174 74.796 364.422 74.332C364.678 73.86 365.03 73.5 365.478 73.252C365.926 73.004 366.434 72.88 367.002 72.88C367.586 72.88 368.082 73 368.49 73.24C368.898 73.48 369.21 73.808 369.426 74.224C369.642 74.64 369.75 75.112 369.75 75.64C369.75 75.784 369.746 75.92 369.738 76.048C369.73 76.176 369.718 76.288 369.702 76.384H364.878V75.4H369.138L368.502 75.592C368.502 75.048 368.366 74.632 368.094 74.344C367.822 74.048 367.45 73.9 366.978 73.9C366.634 73.9 366.334 73.98 366.078 74.14C365.822 74.3 365.626 74.54 365.49 74.86C365.354 75.172 365.286 75.556 365.286 76.012C365.286 76.46 365.358 76.84 365.502 77.152C365.646 77.464 365.85 77.7 366.114 77.86C366.378 78.02 366.69 78.1 367.05 78.1C367.45 78.1 367.774 78.024 368.022 77.872C368.27 77.72 368.466 77.508 368.61 77.236L369.63 77.716C369.486 78.004 369.29 78.256 369.042 78.472C368.802 78.68 368.514 78.84 368.178 78.952C367.842 79.064 367.474 79.12 367.074 79.12ZM371.371 79V73H372.463L372.583 74.08C372.743 73.688 372.979 73.392 373.291 73.192C373.611 72.984 374.003 72.88 374.467 72.88C374.587 72.88 374.707 72.892 374.827 72.916C374.947 72.932 375.047 72.96 375.127 73L374.947 74.128C374.859 74.096 374.759 74.072 374.647 74.056C374.543 74.032 374.399 74.02 374.215 74.02C373.967 74.02 373.723 74.088 373.483 74.224C373.243 74.352 373.043 74.548 372.883 74.812C372.731 75.076 372.655 75.412 372.655 75.82V79H371.371ZM379.679 75.148C379.679 74.748 379.567 74.44 379.343 74.224C379.127 74 378.827 73.888 378.443 73.888C378.083 73.888 377.775 73.972 377.519 74.14C377.263 74.308 377.075 74.58 376.955 74.956L375.875 74.5C376.027 74.012 376.323 73.62 376.763 73.324C377.211 73.028 377.787 72.88 378.491 72.88C378.971 72.88 379.395 72.96 379.763 73.12C380.131 73.272 380.419 73.504 380.627 73.816C380.843 74.128 380.951 74.528 380.951 75.016V77.692C380.951 77.988 381.099 78.136 381.395 78.136C381.539 78.136 381.679 78.116 381.815 78.076L381.743 78.964C381.559 79.052 381.327 79.096 381.047 79.096C380.791 79.096 380.559 79.052 380.351 78.964C380.151 78.868 379.991 78.728 379.871 78.544C379.759 78.352 379.703 78.116 379.703 77.836V77.752L379.967 77.74C379.895 78.052 379.747 78.312 379.523 78.52C379.299 78.72 379.039 78.872 378.743 78.976C378.447 79.072 378.147 79.12 377.843 79.12C377.467 79.12 377.127 79.06 376.823 78.94C376.527 78.82 376.291 78.64 376.115 78.4C375.947 78.152 375.863 77.848 375.863 77.488C375.863 77.04 376.007 76.672 376.295 76.384C376.591 76.096 377.007 75.9 377.543 75.796L379.871 75.34L379.859 76.24L378.167 76.588C377.831 76.652 377.579 76.744 377.411 76.864C377.243 76.984 377.159 77.16 377.159 77.392C377.159 77.616 377.243 77.796 377.411 77.932C377.587 78.06 377.819 78.124 378.107 78.124C378.307 78.124 378.499 78.1 378.683 78.052C378.875 78.004 379.047 77.928 379.199 77.824C379.351 77.712 379.467 77.572 379.547 77.404C379.635 77.228 379.679 77.02 379.679 76.78V75.148Z" fill="white"/>
<rect x="407.5" y="20.5" width="43" height="43" rx="21.5" fill="white"/>
<path d="M429 48.75C432.314 48.75 435 46.0637 435 42.75V41.25M429 48.75C425.686 48.75 423 46.0637 423 42.75V41.25M429 48.75V52.5M425.25 52.5H432.75M429 45.75C427.343 45.75 426 44.4069 426 42.75V34.5C426 32.8431 427.343 31.5 429 31.5C430.657 31.5 432 32.8431 432 34.5V42.75C432 44.4069 430.657 45.75 429 45.75Z" stroke="#0F172A" stroke-width="1.5" stroke-linecap="round" stroke-linejoin="round"/>
<g filter="url(#filter1_d_597_1339)">
<rect x="439" y="54" width="12" height="12" rx="2" fill="white"/>
<path d="M447.64 61.0167L445.467 58.8434C445.21 58.5867 444.79 58.5867 444.533 58.8434L442.36 61.0167" stroke="black" stroke-miterlimit="10" stroke-linecap="round" stroke-linejoin="round"/>
</g>
<rect x="407.5" y="20.5" width="43" height="43" rx="21.5" stroke="black"/>
<path d="M427.776 71.08V79H426.588V74.416L426.684 72.232H426.672L424.26 79H423.192L420.78 72.232H420.768L420.864 74.416V79H419.676V71.08H421.584L423.18 75.664L423.732 77.548H423.756L424.32 75.664L425.904 71.08H427.776ZM430.597 71.992C430.317 71.992 430.101 71.924 429.949 71.788C429.805 71.644 429.733 71.444 429.733 71.188C429.733 70.932 429.805 70.736 429.949 70.6C430.101 70.464 430.317 70.396 430.597 70.396C430.869 70.396 431.077 70.464 431.221 70.6C431.373 70.736 431.449 70.932 431.449 71.188C431.449 71.444 431.373 71.644 431.221 71.788C431.077 71.924 430.869 71.992 430.597 71.992ZM431.233 73V79H429.949V73H431.233ZM435.834 72.88C436.314 72.88 436.722 72.952 437.058 73.096C437.402 73.232 437.69 73.428 437.922 73.684C438.154 73.94 438.33 74.232 438.45 74.56L437.238 75.04C437.134 74.672 436.966 74.392 436.734 74.2C436.51 74 436.214 73.9 435.846 73.9C435.486 73.9 435.178 73.984 434.922 74.152C434.666 74.312 434.47 74.548 434.334 74.86C434.206 75.172 434.142 75.556 434.142 76.012C434.142 76.46 434.21 76.84 434.346 77.152C434.482 77.464 434.678 77.7 434.934 77.86C435.19 78.02 435.494 78.1 435.846 78.1C436.118 78.1 436.354 78.056 436.554 77.968C436.754 77.872 436.918 77.74 437.046 77.572C437.182 77.396 437.274 77.184 437.322 76.936L438.486 77.332C438.374 77.692 438.198 78.008 437.958 78.28C437.726 78.544 437.434 78.752 437.082 78.904C436.73 79.048 436.326 79.12 435.87 79.12C435.278 79.12 434.754 78.996 434.298 78.748C433.842 78.5 433.486 78.144 433.23 77.68C432.982 77.208 432.858 76.648 432.858 76C432.858 75.352 432.982 74.796 433.23 74.332C433.486 73.86 433.838 73.5 434.286 73.252C434.742 73.004 435.258 72.88 435.834 72.88Z" fill="white"/>
<rect x="475.5" y="20.5" width="43" height="43" rx="21.5" fill="#4B4B4B"/>
<path d="M499.74 39L499.394 48M494.606 48L494.26 39M504.228 35.7906C504.57 35.8422 504.91 35.8975 505.25 35.9563M504.228 35.7906L503.16 49.6726C503.07 50.8448 502.092 51.75 500.916 51.75H493.084C491.908 51.75 490.93 50.8448 490.84 49.6726L489.772 35.7906M504.228 35.7906C503.081 35.6174 501.922 35.4849 500.75 35.3943M488.75 35.9563C489.09 35.8975 489.43 35.8422 489.772 35.7906M489.772 35.7906C490.919 35.6174 492.078 35.4849 493.25 35.3943M500.75 35.3943V34.4782C500.75 33.2988 499.839 32.3142 498.661 32.2765C498.109 32.2589 497.556 32.25 497 32.25C496.444 32.25 495.891 32.2589 495.339 32.2765C494.161 32.3142 493.25 33.2988 493.25 34.4782V35.3943M500.75 35.3943C499.513 35.2987 498.262 35.25 497 35.25C495.738 35.25 494.487 35.2987 493.25 35.3943" stroke="#BEBEBE" stroke-width="1.5" stroke-linecap="round" stroke-linejoin="round"/>
<rect x="475.5" y="20.5" width="43" height="43" rx="21.5" stroke="black"/>
<defs>
<filter id="filter0_d_597_1339" x="366" y="54" width="20" height="20" filterUnits="userSpaceOnUse" color-interpolation-filters="sRGB">
<feFlood flood-opacity="0" result="BackgroundImageFix"/>
<feColorMatrix in="SourceAlpha" type="matrix" values="0 0 0 0 0 0 0 0 0 0 0 0 0 0 0 0 0 0 127 0" result="hardAlpha"/>
<feOffset dy="4"/>
<feGaussianBlur stdDeviation="2"/>
<feComposite in2="hardAlpha" operator="out"/>
<feColorMatrix type="matrix" values="0 0 0 0 0 0 0 0 0 0 0 0 0 0 0 0 0 0 0.25 0"/>
<feBlend mode="normal" in2="BackgroundImageFix" result="effect1_dropShadow_597_1339"/>
<feBlend mode="normal" in="SourceGraphic" in2="effect1_dropShadow_597_1339" result="shape"/>
</filter>
<filter id="filter1_d_597_1339" x="435" y="54" width="20" height="20" filterUnits="userSpaceOnUse" color-interpolation-filters="sRGB">
<feFlood flood-opacity="0" result="BackgroundImageFix"/>
<feColorMatrix in="SourceAlpha" type="matrix" values="0 0 0 0 0 0 0 0 0 0 0 0 0 0 0 0 0 0 127 0" result="hardAlpha"/>
<feOffset dy="4"/>
<feGaussianBlur stdDeviation="2"/>
<feComposite in2="hardAlpha" operator="out"/>
<feColorMatrix type="matrix" values="0 0 0 0 0 0 0 0 0 0 0 0 0 0 0 0 0 0 0.25 0"/>
<feBlend mode="normal" in2="BackgroundImageFix" result="effect1_dropShadow_597_1339"/>
<feBlend mode="normal" in="SourceGraphic" in2="effect1_dropShadow_597_1339" result="shape"/>
</filter>
</defs>
</svg>
